<svg width="400" height="300" viewBox="0 0 400 300" xmlns="http://www.w3.org/2000/svg">
  <!-- Background -->
  <rect width="400" height="300" fill="#fef3e2"/>
  
  <!-- Cup -->
  <path d="M120 80 L280 80 L270 220 L130 220 Z" fill="#ffffff" stroke="#e5e7eb" stroke-width="2"/>
  
  <!-- Hojicha liquid -->
  <path d="M125 85 L275 85 L266 180 L134 180 Z" fill="#d97706" opacity="0.8"/>
  
  <!-- Foam/milk layer -->
  <ellipse cx="200" cy="85" rx="75" ry="8" fill="#ffffff" opacity="0.9"/>
  
  <!-- Cup handle -->
  <path d="M280 120 Q300 130 300 150 Q300 170 280 180" fill="none" stroke="#e5e7eb" stroke-width="3"/>
  
  <!-- Steam -->
  <path d="M180 70 Q185 60 180 50" fill="none" stroke="#d1d5db" stroke-width="2" opacity="0.6"/>
  <path d="M200 70 Q205 60 200 50" fill="none" stroke="#d1d5db" stroke-width="2" opacity="0.6"/>
  <path d="M220 70 Q225 60 220 50" fill="none" stroke="#d1d5db" stroke-width="2" opacity="0.6"/>
  
  <!-- Hojicha powder effect -->
  <circle cx="190" cy="100" r="2" fill="#b45309" opacity="0.6"/>
  <circle cx="210" cy="110" r="1.5" fill="#b45309" opacity="0.6"/>
  <circle cx="200" cy="130" r="1" fill="#b45309" opacity="0.6"/>
  
  <!-- Label -->
  <text x="200" y="260" text-anchor="middle" font-family="Arial, sans-serif" font-size="18" font-weight="bold" fill="#92400e">Hojicha Latte</text>
</svg>